<svg id="Layer_1" xmlns="http://www.w3.org/2000/svg" xmlns:xlink="http://www.w3.org/1999/xlink" width="160" height="160" viewBox="176 176 160 160" enable-background="new 176 176 160 160"><g><g id="Apple_1_"><path d="M289.028 179.581c.325 17.452-11.838 30.661-28.94 36.421h.392v-.418c0 0-1.6-.148-1.6-.421V200.6c5.44-12.235 13.577-21.848 26.732-24.552.961-.178 1.687.204 2.434.843C288.829 177.514 289.028 178.578 289.028 179.581z"/><path d="M321.923 288.93c-7.241 21.776-21.117 44.993-32.895 44.993-6.37.073-12.68-1.252-18.485-3.878-3.47-1.685-6.731-2.604-10.586-2.699-.538.012-1.077.041-1.077.095V222.023c0 .042.539.06 1.077.072 4.899-.095 9.469-1.168 13.945-3.16 4.852-2.141 9.956-3.304 15.259-3.417 10.815.107 21.044 4.649 28.416 12.561.161.178.27.368.389.575.905 1.571.351 3.588-1.227 4.489-9.003 5.259-14.544 14.902-14.544 25.328-.06 11.534 6.887 21.942 17.561 26.313.012.006.022.006.034.011C321.522 285.347 322.475 287.198 321.923 288.93z"
			/></g><g><path fill="#32de84" d="M212.54 230.722h37.06v-32.763c-3.84.231-9.99 1.299-14.485 3.049l-1.592-2.421-1.504-2.383-3.734-5.67c-.438-.652-1.291-.825-1.949-.392-.646.433-.808 1.309-.381 1.955l3.535 5.287 1.568 2.349 1.595 2.547C220.651 207.871 212.54 217.922 212.54 230.722zM230.918 214.879c0-2.343 1.897-4.236 4.247-4.236 2.337.0 4.234 1.893 4.234 4.236.0 2.341-1.897 4.245-4.234 4.245C232.815 219.124 230.918 217.221 230.918 214.879z"/><path fill="#32de84" d="M212.16 234.882V298.3c0 4.939 4.395 8.902 9.329 8.902h6.465c-.213.0.847 1.595.847 2.406v17.915c0 4.681 3.793 8.479 8.48 8.479 4.679.0 8.48-3.799 8.48-8.479v-17.915c0-.817-1.296-2.406-1.51-2.406h5.35v-72.32H212.16z"/><path fill="#32de84" d="M189.92 244.57v36.288c0 4.682 3.794 8.482 8.475 8.482 4.688.0 8.482-3.801 8.482-8.482v-36.284c0-4.691-3.793-8.487-8.482-8.487C193.714 236.086 189.92 239.882 189.92 244.57z"/></g></g></svg>