<?xml version="1.0" encoding="iso-8859-1"?>
<!-- Generator: Adobe Illustrator 19.0.0, SVG Export Plug-In . SVG Version: 6.00 Build 0)  -->
<svg version="1.1" id="Capa_1" xmlns="http://www.w3.org/2000/svg" xmlns:xlink="http://www.w3.org/1999/xlink" x="0px" y="0px"
	 viewBox="0 0 384 384" style="enable-background:new 0 0 384 384;" xml:space="preserve">
<circle style="fill:#E05B49;" cx="192" cy="192" r="192"/>
<path style="opacity:0.1;enable-background:new    ;" d="M384,192c0-9.083-0.676-18.005-1.896-26.752l-81.665-81.665
	c-0.008-0.008-0.014-0.014-0.022-0.022l-0.051-0.051l-0.01,0.01c-0.964-0.933-2.268-1.52-3.715-1.52H87.36C84.4,82,82,84.4,82,87.36
	v209.28c0,1.42,0.575,2.692,1.476,3.651l-0.022,0.008l0.084,0.084c0.026,0.027,0.052,0.052,0.079,0.079l81.644,81.644
	C174.004,383.324,182.921,384,192,384C298.039,384,384,298.039,384,192z"/>
<path style="fill:#64798A;" d="M296.654,82H87.347C84.394,82,82,84.394,82,87.346v31.274h220V87.346
	C302,84.394,299.606,82,296.654,82z"/>
<circle style="fill:#FCD462;" cx="245.52" cy="100.32" r="6.04"/>
<circle style="fill:#44C4A1;" cx="267.08" cy="100.32" r="6.04"/>
<circle style="fill:#E56353;" cx="288.6" cy="100.32" r="6.04"/>
<path style="fill:#FFFFFF;" d="M129.081,118.62c-1.126,0-2.126-0.718-2.487-1.784l-2.943-8.703
	c-0.361-1.066-1.361-1.784-2.487-1.784H93.969c-1.126,0-2.126,0.718-2.487,1.784l-2.942,8.703c-0.361,1.066-1.362,1.784-2.488,1.784
	H82v178.034c0,2.952,2.394,5.346,5.346,5.346h209.309c2.952,0,5.346-2.394,5.346-5.346V118.62H129.081z"/>
<path style="fill:#EBF0F3;" d="M130.068,114.62h37.273l-2.194-6.488c-0.361-1.066-1.361-1.784-2.487-1.784h-35.486
	c0.077,0.177,0.202,0.321,0.265,0.506L130.068,114.62z"/>
<path style="fill:#DC8744;" d="M147.59,247.146c-0.878,0-1.756-0.335-2.426-1.005l-29.797-29.795
	c-0.643-0.644-1.005-1.516-1.005-2.426c0-0.91,0.362-1.783,1.005-2.426l29.797-29.795c1.341-1.34,3.512-1.34,4.853,0
	c1.341,1.341,1.341,3.512,0,4.853l-27.37,27.369l27.37,27.369c1.341,1.34,1.341,3.512,0,4.853
	C149.346,246.811,148.468,247.146,147.59,247.146z"/>
<path style="fill:#E56353;" d="M236.41,247.146c-0.878,0-1.756-0.335-2.426-1.005c-1.341-1.341-1.341-3.512,0-4.853l27.37-27.369
	l-27.37-27.369c-1.341-1.34-1.341-3.512,0-4.853c1.34-1.34,3.512-1.34,4.853,0l29.797,29.795c0.643,0.644,1.005,1.516,1.005,2.426
	c0,0.91-0.362,1.783-1.005,2.426l-29.797,29.795C238.166,246.811,237.288,247.146,236.41,247.146z"/>
<path style="fill:#64798A;" d="M212.797,273.485c-1.337,0-2.607-0.788-3.16-2.098l-47.422-112.263
	c-0.737-1.746,0.08-3.758,1.827-4.498c1.746-0.729,3.757,0.08,4.494,1.826l47.422,112.263c0.737,1.746-0.08,3.759-1.827,4.498
	C213.695,273.396,213.242,273.485,212.797,273.485z"/>
<g>
</g>
<g>
</g>
<g>
</g>
<g>
</g>
<g>
</g>
<g>
</g>
<g>
</g>
<g>
</g>
<g>
</g>
<g>
</g>
<g>
</g>
<g>
</g>
<g>
</g>
<g>
</g>
<g>
</g>
</svg>
