<?xml version="1.0" encoding="UTF-8"?>
<svg xmlns="http://www.w3.org/2000/svg" xmlns:xlink="http://www.w3.org/1999/xlink" width="96pt" height="96pt" viewBox="0 0 96 96" version="1.1">
<g id="surface17290202">
<path style=" stroke:none;fill-rule:nonzero;fill:#b7b7b7;fill-opacity:1;" d="M 64.5 4 C 59.886719 4.269531 54.59375 6.835938 51.445312 10.109375 C 48.601562 13.085938 46.359375 17.503906 47.273438 21.78125 C 52.285156 21.914062 57.316406 19.277344 60.328125 15.945312 C 63.140625 12.828125 65.273438 8.480469 64.5 4 Z M 64.773438 21.773438 C 57.539062 21.773438 54.511719 26.21875 49.5 26.21875 C 44.34375 26.21875 39.628906 22.054688 33.390625 22.054688 C 24.902344 22.058594 12 29.921875 12 48.445312 C 12 65.296875 27.269531 84 35.890625 84 C 41.125 84.050781 42.394531 80.707031 49.5 80.671875 C 56.613281 80.621094 58.148438 84.042969 63.390625 84 C 69.292969 83.957031 73.90625 77.46875 77.273438 72.328125 C 79.6875 68.648438 80.683594 66.769531 82.554688 62.609375 C 68.664062 59.089844 65.898438 36.6875 82.554688 32.054688 C 79.410156 26.691406 70.234375 21.773438 64.773438 21.773438 Z M 64.773438 21.773438 "/>
</g>
</svg>
