<svg viewBox="0 0 500 500" xmlns="http://www.w3.org/2000/svg">
    <path d="M 165.78 112.244 Q 164.822 112.464 163.99 112.613 Q 163.158 112.762 162.263 112.762 Q 161.887 112.762 161.447 112.723 Q 161.007 112.684 160.583 112.543 Q 160.16 112.401 159.798 112.15 Q 159.437 111.899 159.202 111.475 Q 159.265 111.255 159.492 111.004 Q 159.72 110.753 160.018 110.478 Q 160.317 110.203 160.654 109.936 Q 160.992 109.669 161.29 109.403 Q 161.73 109.01 162.083 108.625 Q 162.436 108.241 162.774 107.809 Q 163.111 107.377 163.472 106.836 Q 163.833 106.294 164.289 105.572 Q 164.665 105.572 164.995 105.69 Q 165.325 105.807 165.568 105.988 Q 165.812 106.168 165.953 106.388 Q 166.094 106.608 166.094 106.828 Q 166.094 107 166.063 107.173 Q 166.031 107.346 166 107.503 Q 165.906 107.424 165.78 107.424 Q 165.623 107.424 165.293 107.66 Q 164.964 107.895 164.54 108.264 Q 164.116 108.633 163.637 109.104 Q 163.158 109.575 162.687 110.038 Q 162.216 110.502 161.808 110.91 Q 161.4 111.318 161.117 111.585 Q 161.227 111.663 161.368 111.726 Q 161.51 111.789 161.73 111.836 Q 161.949 111.883 162.279 111.907 Q 162.609 111.93 163.095 111.93 Q 163.409 111.93 163.81 111.899 Q 164.21 111.867 164.603 111.82 Q 164.995 111.773 165.348 111.726 Q 165.702 111.679 165.937 111.632 Q 165.953 111.679 165.953 111.758 Q 165.953 111.883 165.898 112.024 Q 165.843 112.166 165.78 112.244 Z" transform="matrix(17.423914, 0.042679, -0.05165, 21.086479, -2757.236816, -2071.771973)" style="fill: #C159D6; white-space: pre;" />
    <path d="M 177.79 106.781 Q 177.79 107.644 177.358 108.429 Q 176.927 109.214 176.197 109.803 Q 175.467 110.392 174.485 110.737 Q 173.504 111.082 172.405 111.082 Q 172.013 111.082 171.785 110.98 Q 171.557 110.878 171.275 110.58 Q 170.49 112.291 169.995 113.728 Q 169.501 115.164 169.218 116.515 Q 168.621 116.373 168.245 116.02 Q 167.868 115.667 167.554 115.133 Q 167.711 114.835 167.931 114.348 Q 168.15 113.861 168.464 113.147 Q 168.778 112.433 169.194 111.436 Q 169.611 110.439 170.176 109.104 Q 170.427 108.492 170.615 108.037 Q 170.804 107.581 170.945 107.181 Q 171.086 106.781 171.204 106.388 Q 171.322 105.996 171.447 105.525 Q 170.71 105.76 170.089 106.074 Q 169.469 106.388 169.061 106.734 Q 168.92 106.639 168.771 106.451 Q 168.621 106.263 168.496 106.035 Q 168.37 105.807 168.276 105.572 Q 168.182 105.336 168.166 105.148 Q 168.621 104.834 169.297 104.567 Q 169.972 104.3 170.741 104.104 Q 171.51 103.908 172.334 103.798 Q 173.159 103.688 173.912 103.688 Q 174.807 103.688 175.529 103.915 Q 176.252 104.143 176.754 104.551 Q 177.256 104.959 177.523 105.525 Q 177.79 106.09 177.79 106.781 Z M 174.996 104.897 Q 174.399 104.897 173.771 104.991 L 173.959 105.273 Q 173.802 105.478 173.567 105.886 Q 173.331 106.294 173.049 106.867 Q 172.766 107.44 172.429 108.147 Q 172.091 108.853 171.714 109.638 Q 172.939 109.638 173.944 109.41 Q 174.949 109.183 175.663 108.782 Q 176.377 108.382 176.778 107.848 Q 177.178 107.314 177.178 106.702 Q 177.178 105.886 176.628 105.391 Q 176.079 104.897 174.996 104.897 Z" transform="matrix(17.423914, 0.042679, -0.05165, 21.086479, -2757.236816, -2071.771973)" style="fill: #C159D6; white-space: pre;" />
    <path d="M 180.585 106.608 Q 181.26 106.796 181.857 107.087 Q 182.453 107.377 182.979 107.731 Q 183.505 108.084 183.984 108.5 Q 184.463 108.916 184.918 109.355 Q 185.264 109.701 185.578 110.243 Q 185.892 110.784 185.892 111.412 Q 185.892 111.648 185.845 111.852 Q 185.64 111.977 185.319 112.017 Q 184.997 112.056 184.604 112.056 Q 184.149 112.056 183.662 112.032 Q 183.176 112.009 182.752 112.009 Q 182.186 112.009 181.692 112.056 Q 181.197 112.103 180.664 112.205 Q 180.13 112.307 179.525 112.464 Q 178.921 112.621 178.12 112.841 Q 177.602 112.119 177.602 111.601 Q 177.602 111.13 178.034 110.902 Q 178.466 110.674 179.188 110.643 Q 179.706 110.627 180.452 110.604 Q 181.197 110.58 181.959 110.557 Q 182.72 110.533 183.403 110.517 Q 184.086 110.502 184.494 110.502 Q 184.463 110.36 184.408 110.235 Q 184.353 110.109 184.22 109.944 Q 184.086 109.779 183.874 109.552 Q 183.662 109.324 183.333 108.994 Q 183.019 108.696 182.634 108.39 Q 182.249 108.084 181.825 107.817 Q 181.401 107.55 180.946 107.33 Q 180.491 107.11 180.051 106.969 Q 180.098 106.843 180.279 106.734 Q 180.459 106.624 180.585 106.608 Z" transform="matrix(17.423914, 0.042679, -0.05165, 21.086479, -2757.236816, -2071.771973)" style="fill: #C159D6; white-space: pre;" />
</svg>